<svg width="144" height="144" viewBox="0 0 144 144" fill="none" xmlns="http://www.w3.org/2000/svg">
<path fill-rule="evenodd" clip-rule="evenodd" d="M4.73587 0.765072L0.713631 4.78442L14.1211 18.1822L18.1434 14.1629L4.73587 0.765072Z" fill="white"/>
<path fill-rule="evenodd" clip-rule="evenodd" d="M4.73587 84.1337L0.713631 88.1531L14.1211 101.551L18.1434 97.5315L4.73587 84.1337Z" fill="white"/>
<path fill-rule="evenodd" clip-rule="evenodd" d="M4.73587 42.4492L0.713631 46.4685L14.1211 59.8663L18.1434 55.847L4.73587 42.4492Z" fill="white"/>
<path fill-rule="evenodd" clip-rule="evenodd" d="M4.73587 125.818L0.713631 129.837L14.1211 143.235L18.1434 139.216L4.73587 125.818Z" fill="white"/>
<path fill-rule="evenodd" clip-rule="evenodd" d="M46.4502 0.765072L42.428 4.78442L55.8355 18.1822L59.8577 14.1629L46.4502 0.765072Z" fill="white"/>
<path fill-rule="evenodd" clip-rule="evenodd" d="M46.4502 84.1337L42.428 88.1531L55.8355 101.551L59.8577 97.5315L46.4502 84.1337Z" fill="white"/>
<path fill-rule="evenodd" clip-rule="evenodd" d="M46.4502 42.4492L42.428 46.4685L55.8355 59.8663L59.8577 55.847L46.4502 42.4492Z" fill="white"/>
<path fill-rule="evenodd" clip-rule="evenodd" d="M46.4502 125.818L42.428 129.837L55.8355 143.235L59.8577 139.216L46.4502 125.818Z" fill="white"/>
<path fill-rule="evenodd" clip-rule="evenodd" d="M88.1643 0.765072L84.1421 4.78442L97.5496 18.1822L101.572 14.1629L88.1643 0.765072Z" fill="white"/>
<path fill-rule="evenodd" clip-rule="evenodd" d="M88.1643 84.1337L84.1421 88.1531L97.5496 101.551L101.572 97.5315L88.1643 84.1337Z" fill="white"/>
<path fill-rule="evenodd" clip-rule="evenodd" d="M88.1643 42.4492L84.1421 46.4685L97.5496 59.8663L101.572 55.847L88.1643 42.4492Z" fill="white"/>
<path fill-rule="evenodd" clip-rule="evenodd" d="M88.1643 125.818L84.1421 129.837L97.5496 143.235L101.572 139.216L88.1643 125.818Z" fill="white"/>
<path fill-rule="evenodd" clip-rule="evenodd" d="M129.879 0.765072L125.856 4.78442L139.264 18.1822L143.286 14.1629L129.879 0.765072Z" fill="white"/>
<path fill-rule="evenodd" clip-rule="evenodd" d="M129.879 84.1337L125.856 88.1531L139.264 101.551L143.286 97.5315L129.879 84.1337Z" fill="white"/>
<path fill-rule="evenodd" clip-rule="evenodd" d="M129.879 42.4492L125.856 46.4685L139.264 59.8663L143.286 55.847L129.879 42.4492Z" fill="white"/>
<path fill-rule="evenodd" clip-rule="evenodd" d="M129.879 125.818L125.856 129.837L139.264 143.235L143.286 139.216L129.879 125.818Z" fill="white"/>
</svg>
